<svg width="253" height="40" viewBox="0 0 253 40" xmlns="http://www.w3.org/2000/svg"><g fill="none" fill-rule="evenodd"><path d="M233.993 38.93c-1.744 0-3.49-.237-5.193-.704-3.852-1.057-7.377-3.493-9.823-6.684-2.31-3.016-3.73-6.674-4-10.49-.29-4.09.702-8.238 2.866-11.71 2.204-3.533 5.51-6.3 9.367-7.785 2.156-.83 4.458-1.25 6.76-1.25 1.594 0 3.187.2 4.733.604 3.94 1.03 7.496 3.356 10.057 6.563 2.587 3.237 4.08 7.296 4.224 11.46.133 3.81-.855 7.61-2.83 10.853-2.136 3.496-5.367 6.26-9.132 7.785-2.25.914-4.636 1.36-7.03 1.36m15.07-24.96c-.02.035-.154.083-.19.103l-.183.102c-.138.077-.273.156-.408.236-.252.15-.502.306-.748.465-.5.323-.985.665-1.46 1.024-.896.68-1.748 1.42-2.554 2.21-1.942 1.9-3.627 4.07-5.05 6.397-.603.988-1.187 2.01-1.65 3.074l11.9.03c.31-.02.63-.097.847-.34.24-.272.395-.657.556-.98.337-.683.624-1.392.854-2.12.62-1.954.827-4.036.616-6.078-.11-1.05-.33-2.086-.654-3.088-.14-.43-.31-.807-.737-1.01-.174-.083-.393-.127-.61-.127-.188 0-.376.033-.532.103m-29.598-2.33c-.287 0-.56.04-.806.2-.383.247-.57.716-.77 1.11-.445.88-.798 1.803-1.055 2.754-.542 2.004-.662 4.124-.354 6.178.154 1.028.415 2.04.778 3.012.156.42.29.828.695 1.066.187.11.395.165.603.165.22 0 .44-.06.634-.178l.33-.197-.318.19c8.112-4.828 11.828-14.3 11.828-14.3H219.462m29.6 2.33c-.002 0-.004 0-.006.002-.026.014-.052.03-.08.044.02-.01.076-.03.085-.046m-29.873 11.977l.012-.007-.013.007" fill="#8762FF"/><path d="M16.918 13.27H3.9l-.87 4.822h5.62l-.036.072-1.85 2.03-5.837 7.29L.275 31h13.343l.907-4.822H8.542l.036-.073 2.176-2.43 5.51-6.89.654-3.516zm15.736 4.713c0-3.372-2.72-5.004-5.946-5.004-6.962 0-9.32 6.055-9.32 11.385 0 4.35 2.394 6.96 6.89 6.96 2.176 0 4.46-.434 6.092-1.123l.58-4.786c-1.704.798-3.227 1.197-5.004 1.197-2.284 0-2.755-.472-2.683-2.067.29 0 .616.036.906.036 2.5 0 5.003-.47 6.78-2.248 1.124-1.124 1.704-2.647 1.704-4.35zm-5.112.29c0 .653-.254 1.233-.617 1.595-.652.653-1.777.798-2.72.798-.217 0-.434 0-.616-.036.217-2.03 1.232-3.553 2.79-3.553.872 0 1.162.507 1.162 1.196zm23.314 1.342c0-3.554-1.74-6.708-5.15-6.708-2.247 0-2.79.435-4.24 1.414h-.037l-.074-1.087h-4.46l-4.858 26.18h5.874l1.56-8.34h.035c.254.072.87.253 1.56.253 7.324 0 9.79-5.62 9.79-11.71zm-5.91.326c0 2.213-.69 6.673-3.553 6.673-.762 0-.907-.073-1.125-.145l1.487-8.122c.508-.435.834-.69 1.596-.69 1.016 0 1.596.69 1.596 2.285zm21.864-6.67h-4.315l.943-5.04H57.6l-.942 5.22-2.684.327-.834 4.46h2.61l-1.594 8.63c-.435 2.43.47 4.46 3.553 4.46 1.087 0 3.444-.218 4.858-.617l.544-5.076c-.798.29-1.958.616-2.538.616-.327 0-.436-.145-.327-.834l1.342-7.18h4.314l.906-4.967zm17.26 6.38c0-3.988-2.03-6.743-6.817-6.743-7.36 0-10.262 5.15-10.262 11.675 0 3.99 2.032 6.744 6.818 6.744 7.36 0 10.26-5.148 10.26-11.675zm-5.947.037c0 2.357-.4 6.817-3.3 6.817-1.196 0-1.92-.363-1.92-1.958 0-2.32.36-6.817 3.262-6.817 1.196 0 1.958.362 1.958 1.957zm31.872-.11c0-3.226-1.705-6.67-5.004-6.67-1.123 0-1.776.072-3.117.652h-.073l1.595-8.666h-5.837l-4.64 24.982c2.428.943 4.857 1.45 6.997 1.45 5.837 0 10.08-3.517 10.08-11.748zm-5.947.364c0 2.43-.58 6.71-3.517 6.71-.362 0-.76-.074-1.16-.182l1.487-8.122c.508-.435.834-.69 1.596-.69 1.015 0 1.595.726 1.595 2.285zm24.91-6.707h-5.8l-2.286 12.183c-.87.69-1.776 1.197-2.647 1.197-.69 0-.942-.4-.834-.87l2.286-12.51h-5.802l-2.357 12.8c-.725 3.843 1.56 5.257 4.895 5.257 1.668 0 3.663-.87 4.714-1.595h.036L121.2 31h4.458l3.3-17.767zm12.038-7.904h-6.454l-1.052 5.583h6.454l1.052-5.584zm-1.777 7.94h-5.838L130.118 31h5.802l3.3-17.73zm12.037-8.376h-5.874L140.597 31h5.802l4.857-26.106zm18.746 0h-5.91l-1.487 8.267h-.072c-.254-.072-.87-.253-1.523-.253-7.323 0-9.825 5.62-9.825 11.71 0 3.555 1.74 6.71 5.15 6.71 2.247 0 2.79-.436 4.24-1.415h.073l.037 1.088h4.496l4.823-26.106zm-8.194 12.87l-1.524 8.123c-.472.436-.834.69-1.596.69-.98 0-1.595-.726-1.595-2.285 0-2.212.508-6.708 3.59-6.708.725 0 .87.11 1.124.18zm23.386.22c0-3.373-2.72-5.005-5.947-5.005-6.963 0-9.32 6.055-9.32 11.385 0 4.35 2.394 6.96 6.89 6.96 2.175 0 4.46-.434 6.09-1.123l.582-4.786c-1.705.798-3.228 1.197-5.004 1.197-2.285 0-2.756-.472-2.683-2.067.29 0 .616.036.906.036 2.503 0 5.005-.47 6.782-2.248 1.124-1.124 1.704-2.647 1.704-4.35zm-5.113.29c0 .652-.254 1.232-.616 1.594-.653.653-1.777.798-2.72.798-.217 0-.435 0-.616-.036.218-2.03 1.234-3.553 2.793-3.553.87 0 1.16.507 1.16 1.196zm19.834-4.968c-.653-.254-1.56-.4-2.43-.4-1.27 0-2.828.943-3.77 2.25h-.037l.145-1.923h-4.496L186.03 31h5.837l1.995-10.914c.69-1.124 1.776-1.885 2.864-1.885.508 0 1.27.11 1.85.363l1.34-5.257z" fill="#000"/></g></svg>